<?xml version="1.0" encoding="utf-8"?>
<!-- Generator: Adobe Illustrator 26.0.3, SVG Export Plug-In . SVG Version: 6.00 Build 0)  -->
<svg version="1.1" id="Calque_1"
	xmlns="http://www.w3.org/2000/svg"
	xmlns:xlink="http://www.w3.org/1999/xlink" x="0px" y="0px" viewBox="0 0 517.7 447" style="enable-background:new 0 0 517.7 447;" xml:space="preserve">
	<style type="text/css">
	.st0{fill:#6A64AA;}
	</style>
	<path class="st0" d="M168.9,262l41.7-32.8c-45.2-57.5-112.9-79.6-168.8-35.6L0.1,226.4C45.3,283.8,113,305.9,168.9,262z"/>
	<path class="st0" d="M182.2,245.8l28.3-16.6c-30.7-29.1-76.8-40.4-114.8-18l-28.3,16.6C98.1,256.9,144.2,268.1,182.2,245.8z"/>
	<path class="st0" d="M193.7,234.3l16.9-5.4c-18.3-9.4-45.8-13-68.5-5.8l-16.9,5.3C143.5,237.9,171,241.5,193.7,234.3z"/>
	<path class="st0" d="M185.6,161.3l50.1,17.4c23.9-69,6-138-61.3-161.3L124.4,0C100.4,69,118.4,138,185.6,161.3z"/>
	<path class="st0" d="M207.4,163.8l29.3,14.9c7.9-41.6-7.5-86.4-46.8-106.4l-29.3-14.9C152.6,99,168.1,143.8,207.4,163.8z"/>
	<path class="st0" d="M222.9,167.2l13.6,11.3c-2-20.5-13.8-45.6-32.1-60.8l-13.6-11.3C192.8,126.9,204.6,152,222.9,167.2z"/>
	<path class="st0" d="M393.5,0l-50.1,17.4c-67.2,23.3-85.2,92.2-61.2,161.3l50.1-17.4C399.5,138,417.5,69,393.5,0z"/>
	<path class="st0" d="M358.2,57.4l-29.3,14.9c-39.3,20-54.8,64.8-46.8,106.4l29.3-14.9C350.7,143.8,366.2,99,358.2,57.4z"/>
	<path class="st0" d="M328.3,106.4l-13.6,11.3c-18.3,15.2-30.1,40.3-32.1,60.8l13.6-11.3C314.4,152,326.2,126.9,328.3,106.4z"/>
	<path class="st0" d="M517.5,226.4l-41.6-32.8c-55.9-44-123.6-21.9-168.8,35.6l41.7,32.8C404.6,305.9,472.3,283.8,517.5,226.4z"/>
	<path class="st0" d="M450.2,227.7l-28.3-16.6c-38-22.3-84.1-11.1-114.8,18l28.3,16.6C373.4,268.1,419.5,256.9,450.2,227.7z"/>
	<path class="st0" d="M392.5,228.6l-16.9-5.3c-22.7-7.2-50.2-3.6-68.5,5.8l16.9,5.3C346.6,241.5,374.1,237.9,392.5,228.6z"/>
	<path class="st0" d="M234.7,225c0,31.3,22.4,54.3,24.2,54.3c1.6,0,24.2-21.6,24.2-54.3c0-12.9-10.8-23.4-24.2-23.4
	C245.5,201.6,234.7,212,234.7,225z"/>
	<path class="st0" d="M307.4,317.2c-25.5,1.4-47,21.7-48.5,47.2h-0.1c-1.5-25.5-23-45.8-48.5-47.2l-134.4,0.2c0,47,21,85,67.9,85
	l63.7-0.1c17.9-0.1,34.6,9.1,44.1,24.3c3.8,6.1,6.1,12.9,7,19.9c0,0.2,0.1,0.3,0.2,0.3v0c0,0,0,0,0,0c0,0,0,0,0,0c0,0,0,0,0,0
	c0,0,0,0,0,0v0c0.1,0,0.2-0.2,0.2-0.3c0.9-7.1,3.2-13.9,7-19.9c9.5-15.2,26.2-24.4,44.1-24.3l63.7,0.1c46.9,0,67.9-38,67.9-85
	L307.4,317.2z"/>
	<path class="st0" d="M281.1,342.8c-11.7,0.8-21.5,13.1-22.2,28.6h0c-0.7-15.4-10.5-27.7-22.2-28.6l-61.6,0.1
	c0,28.4,9.6,51.4,31.1,51.4l29.2,0c8.2-0.1,15.9,5.5,20.2,14.7c1.7,3.7,2.8,7.8,3.2,12.1c0,0.1,0,0.2,0.1,0.2v0c0,0,0,0,0,0
	c0,0,0,0,0,0c0,0,0,0,0,0c0,0,0,0,0,0v0c0.1,0,0.1-0.1,0.1-0.2c0.4-4.3,1.5-8.4,3.2-12.1c4.3-9.2,12-14.8,20.2-14.7l29.2,0
	c21.5,0,31.1-23,31.1-51.4L281.1,342.8z"/>
	<path class="st0" d="M266,365.1c-3.8,0.4-7,5.6-7.2,12.3h0c-0.2-6.6-3.4-11.9-7.2-12.3l-19.9,0c0,12.2,3.1,22.1,10.1,22.1l9.4,0
	c2.7,0,5.1,2.4,6.5,6.3c0.6,1.6,0.9,3.3,1,5.2c0,0,0,0.1,0,0.1v0c0,0,0,0,0,0c0,0,0,0,0,0c0,0,0,0,0,0c0,0,0,0,0,0v0c0,0,0,0,0-0.1
	c0.1-1.8,0.5-3.6,1-5.2c1.4-4,3.9-6.3,6.5-6.3l9.4,0c7,0,10.1-9.9,10.1-22.1L266,365.1z"/>
</svg>
